# xmcd CD database file
#
# Track frame offsets:
#	150
#	19176
#	40673
#	65453
#	87895
#	106126
#	131160
#	156424
#	180548
#	203644
#	229930
#	255004
#	275576
#	300028
#	324280
#
# Disc length: 4635 seconds
#
# Revision: 2
# Processed by: cddbd v1.5.2PL0 Copyright (c) Steve Scherf et al.
# Submitted via: CDex 1.70beta2
#
DISCID=b712190f
DTITLE=オムニバス - しあわせになれるうた Lucky Side
DYEAR=2008
DGENRE=JPop
TTITLE0=「花」ORANGE RANGE 
TTITLE1=「Love is...」加藤ミリヤ 
TTITLE2=「愛してる」中島美嘉 
TTITLE3=「happiness!!!」木村カエラ 
TTITLE4=「Happy Birthday to you you」YUI 
TTITLE5=「MaGic in youR Eyes」Tommy feburuary 6
TTITLE6=「sha la la」 Skoop On Somebody 
TTITLE7=「いちごいちえ」やなわらばー
TTITLE8=「約束の日」I WiSH 
TTITLE9=「ビューティフル・デイズ」川村結花 
TTITLE10=「メバエ」nobodyknows+
TTITLE11=「バンザイRAP」シュビドゥバ 
TTITLE12=「幸せのちから」Sowelu 
TTITLE13=「プロポーズ」 TUBE 
TTITLE14=「死ぬまで君を離さない」KAN 
EXTD=YEAR: 2008
EXTT0=
EXTT1=
EXTT2=
EXTT3=
EXTT4=
EXTT5=
EXTT6=
EXTT7=
EXTT8=
EXTT9=
EXTT10=
EXTT11=
EXTT12=
EXTT13=
EXTT14=
PLAYORDER=
